<svg width="54" height="50" viewBox="0 0 54 50" fill="none" xmlns="http://www.w3.org/2000/svg">
<path d="M19.0696 42.1182L19.07 42.1192C19.2304 42.5999 19.6777 42.9 20.1506 42.9C20.2719 42.9 20.3933 42.8784 20.5044 42.8455L20.5045 42.8457L20.5125 42.843L34.2064 38.2751C34.2066 38.275 34.2067 38.275 34.2069 38.2749C34.7358 38.1003 35.065 37.5651 34.9728 37.0116C34.8821 36.463 34.4088 36.0576 33.8505 36.0576L20.15 36.0576L20.1498 36.0576C19.5223 36.0583 19.015 36.566 19.015 37.1947C19.015 37.8222 19.5223 38.3313 20.1506 38.3313H26.8414L19.7962 40.6827C19.7958 40.6828 19.7955 40.683 19.7952 40.6831C19.195 40.8786 18.8752 41.527 19.0696 42.1182Z" fill="#545454" stroke="#545454" stroke-width="0.5"/>
<path d="M19.5245 46.9562L19.3477 47.133C19.4786 47.2639 22.0339 49.7474 27.0026 49.7474C31.9647 49.7474 34.5214 47.2637 34.6524 47.1334L34.6527 47.1331C35.0974 46.689 35.0996 45.9642 34.652 45.5233C34.2059 45.0787 33.4878 45.0789 33.042 45.524L33.0419 45.5239L33.0361 45.5301C33.0367 45.5295 33.0358 45.5303 33.0336 45.5324C32.9505 45.6101 30.9573 47.4737 27.0031 47.4737C25.1788 47.4737 23.7741 47.0829 22.783 46.6508L34.2062 42.843L34.2069 42.8428C34.8054 42.6413 35.1249 41.9951 34.931 41.4028L34.931 41.4028L34.9301 41.4C34.7273 40.8042 34.0875 40.4804 33.487 40.6835C33.4868 40.6836 33.4865 40.6837 33.4863 40.6838L19.7941 45.2458C19.7941 45.2458 19.794 45.2458 19.794 45.2458C19.4173 45.3709 19.1326 45.6839 19.0425 46.0667C18.951 46.4525 19.0696 46.8562 19.3481 47.1334L19.5245 46.9562ZM19.5245 46.9562C19.3066 46.7393 19.2146 46.4242 19.2858 46.1242L22.4345 46.7669C23.4642 47.2548 24.985 47.7237 27.0031 47.7237C31.1486 47.7237 33.2036 45.717 33.2187 45.7009C33.5671 45.353 34.1276 45.353 34.476 45.7009C34.8239 46.0431 34.8239 46.6088 34.476 46.9562C34.372 47.0597 31.875 49.4974 27.0026 49.4974C22.1234 49.4974 19.628 47.0597 19.5245 46.9562Z" fill="#545454" stroke="#545454" stroke-width="0.5"/>
<path d="M16.299 26.9036L16.2992 26.9039L16.2994 26.9042C17.041 28.0027 17.7217 29.0111 18.2185 29.9659C18.7155 30.921 19.015 31.7982 19.015 32.6317C19.015 33.2588 19.5224 33.7678 20.1506 33.7678C20.7763 33.7678 21.2929 33.2613 21.2929 32.6317C21.2929 31.4142 20.9029 30.2417 20.3242 29.0897C19.7529 27.9522 18.9883 26.8173 18.2137 25.6676L18.1874 25.6285L18.1873 25.6283C16.3141 22.8538 14.4398 20.0613 14.4398 16.6469C14.4398 9.72605 20.0764 4.0893 27.0037 4.0893C33.9256 4.0893 39.5613 9.72647 39.5613 16.6469C39.5613 20.0595 37.6833 22.8502 35.8164 25.6244L35.8137 25.6285L35.8136 25.6286L35.8095 25.6347C35.027 26.7959 34.2549 27.9417 33.6797 29.0902C33.1026 30.2423 32.7144 31.4147 32.7144 32.6317C32.7144 33.259 33.2225 33.7678 33.8505 33.7678C34.4775 33.7678 34.9876 33.2595 34.9876 32.6317C34.9876 31.7981 35.2867 30.9208 35.7831 29.9659C36.2795 29.011 36.9597 28.0025 37.7014 26.9039L37.7015 26.9036L37.7193 26.8772C39.6241 24.0473 41.8345 20.7632 41.8345 16.6469C41.8345 8.47013 35.1788 1.8161 27.0031 1.8161C18.8202 1.8161 12.1666 8.47009 12.1666 16.6469C12.1666 20.764 14.3778 24.0493 16.2831 26.8799L16.299 26.9036Z" fill="#4770FF" stroke="#4770FF" stroke-width="0.5"/>
<path d="M28.1392 7.5152C28.1392 6.88791 27.6301 6.3786 27.0031 6.3786C21.3391 6.3786 16.7296 10.9884 16.7296 16.6464C16.7296 17.279 17.2378 17.7887 17.8657 17.7887C18.4987 17.7887 19.008 17.2801 19.008 16.6464C19.008 12.2439 22.5942 8.657 27.0031 8.657C27.632 8.657 28.1392 8.14059 28.1392 7.5152Z" fill="#4770FF" stroke="#4770FF" stroke-width="0.5"/>
<path d="M11.5567 6.83659L11.5575 6.83715C11.7601 6.98306 11.9968 7.05279 12.2263 7.05279C12.5796 7.05279 12.9233 6.89274 13.1463 6.58494C13.5152 6.07672 13.4033 5.36583 12.8955 4.99598L12.8954 4.99587L7.35321 0.96587L7.35294 0.965676C6.84227 0.595371 6.13219 0.715143 5.76372 1.22237L5.96598 1.36931L5.76452 1.22128C5.39294 1.727 5.50853 2.43601 6.01308 2.81029L6.01307 2.8103L6.01511 2.81178L11.5567 6.83659Z" fill="#4770FF" stroke="#4770FF" stroke-width="0.5"/>
<path d="M42.4437 6.83738L42.4448 6.83658L47.9859 2.81178L47.9859 2.81179L47.9878 2.81039C48.4927 2.43632 48.6087 1.7275 48.2358 1.22165C47.8675 0.714859 47.1573 0.59567 46.6471 0.965675L46.6468 0.96587L41.1046 4.99587L41.1045 4.99598C40.5964 5.36604 40.4855 6.07713 40.8544 6.58515L40.8546 6.58552C41.0784 6.89248 41.4211 7.05279 41.7743 7.05279C42.0048 7.05279 42.2409 6.98303 42.4437 6.83738L42.4437 6.83738Z" fill="#4770FF" stroke="#4770FF" stroke-width="0.5"/>
<path d="M52.1145 15.5103H45.2661C44.6345 15.5103 44.1248 16.0181 44.1248 16.6464C44.1248 17.2798 44.6333 17.7887 45.2661 17.7887H52.1145C52.742 17.7887 53.2501 17.2789 53.2501 16.6464C53.2501 16.0196 52.7409 15.5103 52.1145 15.5103Z" fill="#4770FF" stroke="#4770FF" stroke-width="0.5"/>
<path d="M1.88672 15.5108C1.25975 15.5102 0.75 16.0195 0.75 16.6469C0.75 17.2797 1.25887 17.7892 1.8866 17.7892L8.73968 17.7892L8.73995 17.7892C9.36836 17.7886 9.8768 17.2793 9.8768 16.6469C9.8768 16.0192 9.3673 15.5108 8.73968 15.5108H1.88672ZM1.88672 15.5108C1.88677 15.5108 1.88682 15.5108 1.88687 15.5108L1.8866 15.7608V15.5108H1.88672Z" fill="#4770FF" stroke="#4770FF" stroke-width="0.5"/>
<path d="M42.4443 26.4625L42.4448 26.4629L47.9858 30.4876L42.4443 26.4625ZM42.4443 26.4625C41.935 26.0947 41.2236 26.2037 40.8541 26.7146C40.4857 27.223 40.5963 27.9335 41.1046 28.3031L41.1047 28.3032M42.4443 26.4625L41.1047 28.3032M41.1047 28.3032L46.6469 32.328L46.6471 32.3282M41.1047 28.3032L46.6471 32.3282M46.6471 32.3282C46.8469 32.4729 47.0831 32.5499 47.3164 32.5499M46.6471 32.3282L47.3164 32.5499M47.3164 32.5499C47.6674 32.5499 48.0153 32.3823 48.2363 32.0771M47.3164 32.5499L48.2363 32.0771M48.2363 32.0771C48.6069 31.5684 48.4952 30.8571 47.9859 30.4877L48.2363 32.0771Z" fill="#4770FF" stroke="#4770FF" stroke-width="0.5"/>
<path d="M11.5568 26.4629L11.5568 26.4629C12.0647 26.0941 12.7761 26.2042 13.1462 26.7144L13.1463 26.7145C13.5149 27.2229 13.4043 27.9336 12.8953 28.3032C12.8953 28.3032 12.8953 28.3032 12.8953 28.3032L7.35321 32.3279L11.5568 26.4629ZM11.5568 26.4629L6.01529 30.4876C6.01527 30.4876 6.01525 30.4876 6.01523 30.4876L11.5568 26.4629Z" fill="#4770FF" stroke="#4770FF" stroke-width="0.5"/>
</svg>
